<?xml version="1.0"?>
<svg data-name="\u56FE\u5C42 1" xmlns="http://www.w3.org/2000/svg" viewBox="0 0 20 20" fill="#757575"><defs></defs><title>icon_fav</title><path data-name="icon fav-copy" class="cls-1" d="M14.61 6.31a2.57 2.57 0 0 1-1.95-1.5l-1.49-3.12a1.31 1.31 0 0 0-2.4 0L7.34 4.81a2.68 2.68 0 0 1-1.95 1.5L2 6.83A1.29 1.29 0 0 0 1.3 9l2.53 2.6a2.64 2.64 0 0 1 .71 2.28L4 17.56a1.32 1.32 0 0 0 1.95 1.37l2.86-1.56a2.52 2.52 0 0 1 2.53 0l2.86 1.56a1.33 1.33 0 0 0 1.95-1.37l-.65-3.64a2.64 2.64 0 0 1 .71-2.28L18.7 9a1.29 1.29 0 0 0-.7-2.17z"></path></svg>
